<svg width="305" height="268" viewBox="0 0 305 268" fill="none" xmlns="http://www.w3.org/2000/svg">
<g filter="url(#filter0_i)">
<path d="M0 66.6409V201.245C0 231.462 32.2189 250.768 58.8647 236.517L184.931 169.093C213.135 154.008 213.105 113.562 184.877 98.5203L58.8115 31.3404C32.1677 17.142 0 36.4501 0 66.6409Z" fill="#1C1C1C"/>
</g>
<path d="M93 244.074L208 183.77L152 133.773L42 191.501L93 244.074Z" fill="url(#paint0_linear)"/>
<path d="M52.6944 73.0339L148.392 123.913C155.466 127.674 155.466 137.811 148.392 141.572L52.6944 192.451C46.0338 195.992 38 191.165 38 183.621V81.8635C38 74.32 46.0338 69.4927 52.6944 73.0339Z" fill="black"/>
<g filter="url(#filter1_di)">
<path d="M78.08 145.4H68.08L66.56 150H58.32L68.6 121.8H77.64L87.88 150H79.6L78.08 145.4ZM76.12 139.4L73.08 130.28L70.08 139.4H76.12ZM102.395 121.8C105.355 121.8 107.942 122.4 110.155 123.6C112.395 124.773 114.115 126.427 115.315 128.56C116.515 130.693 117.115 133.133 117.115 135.88C117.115 138.6 116.502 141.027 115.275 143.16C114.075 145.293 112.355 146.973 110.115 148.2C107.902 149.4 105.329 150 102.395 150H91.2353V121.8H102.395ZM101.795 143.08C104.089 143.08 105.889 142.453 107.195 141.2C108.502 139.947 109.155 138.173 109.155 135.88C109.155 133.56 108.502 131.773 107.195 130.52C105.889 129.24 104.089 128.6 101.795 128.6H99.0753V143.08H101.795ZM138.769 132.88V139.4H120.649V132.88H138.769ZM177.53 128.08V132.68H186.53V138.64H177.53V143.72H187.73V150H169.69V121.8H187.73V128.08H177.53ZM210.404 135.52C212.057 135.893 213.364 136.72 214.324 138C215.311 139.253 215.804 140.693 215.804 142.32C215.804 144.72 214.977 146.6 213.324 147.96C211.671 149.32 209.351 150 206.364 150H192.404V121.8H205.924C208.804 121.8 211.057 122.44 212.684 123.72C214.337 125 215.164 126.8 215.164 129.12C215.164 130.773 214.724 132.16 213.844 133.28C212.991 134.373 211.844 135.12 210.404 135.52ZM200.244 133H204.204C206.177 133 207.164 132.187 207.164 130.56C207.164 128.88 206.177 128.04 204.204 128.04H200.244V133ZM204.804 143.68C206.777 143.68 207.764 142.853 207.764 141.2C207.764 140.347 207.497 139.693 206.964 139.24C206.457 138.787 205.724 138.56 204.764 138.56H200.244V143.68H204.804ZM237.88 145.4H227.88L226.36 150H218.12L228.4 121.8H237.44L247.68 150H239.4L237.88 145.4ZM235.92 139.4L232.88 130.28L229.88 139.4H235.92ZM272.275 121.8V128.04H264.755V150H256.915V128.04H249.475V121.8H272.275ZM283.816 128.08V132.68H292.816V138.64H283.816V143.72H294.016V150H275.976V121.8H294.016V128.08H283.816Z" fill="white"/>
<path d="M162.534 127V128.84H165.414V133.44H162.294C161.868 135.707 160.828 137.493 159.174 138.8C157.548 140.08 155.228 140.72 152.214 140.72V141.88C152.214 142.707 152.361 143.36 152.654 143.84C152.974 144.293 153.494 144.52 154.214 144.52C154.961 144.52 155.481 144.293 155.774 143.84C156.068 143.387 156.214 142.68 156.214 141.72H163.454C163.321 144.44 162.508 146.573 161.014 148.12C159.521 149.64 157.361 150.4 154.534 150.4C148.108 150.4 144.894 147.16 144.894 140.68V135.64C147.534 135.64 149.494 135.6 150.774 135.52C152.081 135.413 153.054 135.213 153.694 134.92C154.334 134.6 154.761 134.107 154.974 133.44H144.494V128.84H155.214V127H144.494V121.8H165.414V127H162.534Z" fill="#41FF76"/>
</g>
<defs>
<filter id="filter0_i" x="0" y="26.5857" width="208.066" height="216.715" filterUnits="userSpaceOnUse" color-interpolation-filters="sRGB">
<feFlood flood-opacity="0" result="BackgroundImageFix"/>
<feBlend mode="normal" in="SourceGraphic" in2="BackgroundImageFix" result="shape"/>
<feColorMatrix in="SourceAlpha" type="matrix" values="0 0 0 0 0 0 0 0 0 0 0 0 0 0 0 0 0 0 127 0" result="hardAlpha"/>
<feOffset dx="2" dy="2"/>
<feGaussianBlur stdDeviation="2"/>
<feComposite in2="hardAlpha" operator="arithmetic" k2="-1" k3="1"/>
<feColorMatrix type="matrix" values="0 0 0 0 0 0 0 0 0 0 0 0 0 0 0 0 0 0 0.25 0"/>
<feBlend mode="normal" in2="shape" result="effect1_innerShadow"/>
</filter>
<filter id="filter1_di" x="48.3198" y="115.8" width="255.696" height="48.6" filterUnits="userSpaceOnUse" color-interpolation-filters="sRGB">
<feFlood flood-opacity="0" result="BackgroundImageFix"/>
<feColorMatrix in="SourceAlpha" type="matrix" values="0 0 0 0 0 0 0 0 0 0 0 0 0 0 0 0 0 0 127 0"/>
<feOffset dy="4"/>
<feGaussianBlur stdDeviation="5"/>
<feColorMatrix type="matrix" values="0 0 0 0 0 0 0 0 0 0 0 0 0 0 0 0 0 0 0.5 0"/>
<feBlend mode="normal" in2="BackgroundImageFix" result="effect1_dropShadow"/>
<feBlend mode="normal" in="SourceGraphic" in2="effect1_dropShadow" result="shape"/>
<feColorMatrix in="SourceAlpha" type="matrix" values="0 0 0 0 0 0 0 0 0 0 0 0 0 0 0 0 0 0 127 0" result="hardAlpha"/>
<feOffset dy="4"/>
<feGaussianBlur stdDeviation="2.5"/>
<feComposite in2="hardAlpha" operator="arithmetic" k2="-1" k3="1"/>
<feColorMatrix type="matrix" values="0 0 0 0 0 0 0 0 0 0 0 0 0 0 0 0 0 0 0.25 0"/>
<feBlend mode="normal" in2="shape" result="effect2_innerShadow"/>
</filter>
<linearGradient id="paint0_linear" x1="87.963" y1="160.282" x2="104.21" y2="195.482" gradientUnits="userSpaceOnUse">
<stop/>
<stop offset="1" stop-color="#262626" stop-opacity="0"/>
</linearGradient>
</defs>
</svg>
